<svg xmlns="http://www.w3.org/2000/svg" width="972.771" height="234.669" viewBox="0 0 972.771 234.669">
  <g id="Component_9_2" data-name="Component 9 – 2" transform="translate(2.035 1.5)">
    <g id="Group_19" data-name="Group 19">
      <path id="Path_16" data-name="Path 16" d="M69.922,86.521H139.2l3.853-24.685H104.516l9.913-60.288H83.873Z" transform="translate(-69.922 4.78)" fill="none" stroke="#f05c12" stroke-width="3"/>
      <path id="Path_17" data-name="Path 17" d="M89.48,86.521h69.281l3.853-21.747h-39l1.651-9.819h30.1l3.947-21.747H128.847l1.651-10h34.872l3.943-21.657H103.52Z" transform="translate(-9.563 4.78)" fill="none" stroke="#f05c12" stroke-width="3"/>
      <path id="Path_18" data-name="Path 18" d="M124.335,86.521H154.8l10.461-62.674h23.214l3.763-22.3H114.148l-3.763,22.3h24.321Z" transform="translate(54.952 4.78)" fill="none" stroke="#f05c12" stroke-width="3"/>
      <path id="Path_19" data-name="Path 19" d="M135.765,0l-4.4,34.5h16.422L164.119,0Z" transform="translate(119.698 0)" fill="none" stroke="#f05c12" stroke-width="3"/>
      <path id="Path_20" data-name="Path 20" d="M174.42,94.138c24.043,0,41.842-11.1,44.229-28.17,1.835-14.5-6.334-25.878-35.881-29.825-14.22-1.925-8.532-11.008,0-11.56,9.819-.736,14.134,4.4,14.134,9.541l28.17.552c.735-20.554-15.691-33.127-38.447-33.127-18.355,0-38.083,7.895-41.295,25.236-3.485,19.544,12.389,27.251,33.033,30.1,17.068,2.2,10.187,16.149-2.934,13.668-7.617-1.467-9.819-6.971-9.819-11.65H136.063c-2.2,17.8,11.744,35.235,38.357,35.235" transform="translate(133.501 4.779)" fill="none" stroke="#f05c12" stroke-width="3"/>
      <path id="Path_21" data-name="Path 21" d="M651.9,86.521h69.281l3.853-21.747h-39l1.651-9.819h30.1l3.943-21.747H691.269l1.651-10h34.871l3.943-21.657H665.943Zm-55.875,7.617c21.836,0,40.833-16.7,47.714-38.631l3.122-14.776H602.816l-3.3,18.171H613.1c-2.938,4.589-7.069,7.617-12.205,7.617-8.536,0-11.286-8.352-9.541-18.629,1.925-10.371,7.613-18.813,16.149-18.813,5.136,0,8.164,2.938,9.357,7.527H646.5c-.736-20.1-13.488-35.055-34.042-35.055-29.09,0-48.176,20.831-52.581,46.341-4.5,25.6,7.065,46.247,36.155,46.247M509.5,86.521H540.06L554.01,1.549H523.45L517.3,39.081,499.227,1.549H468.67L454.724,86.521h30.556l6.971-42.578ZM401.694,50.734l11.834-34.961V50.734ZM358.932,86.521h30.556L394.9,70.646h18.625V86.521h30.561L442.069,1.549H391.233Zm-96.708,0H292.78l5.23-31.566h24.317l-5.14,31.566h30.556L361.69,1.549H331.133l-5.23,31.66H301.68l5.23-31.66H276.354Zm-55.785,7.617c22.3,0,41.659-17.436,48.266-39.918H225.8c-2.66,7.159-7.617,12.3-14.4,12.3-8.626,0-11.47-8.352-9.545-18.629C203.6,37.52,209.467,29.078,218,29.078c6.787,0,9.815,5.324,10,12.479h28.906c1.467-22.572-11.744-40.008-34.042-40.008-29.089,0-47.992,20.831-52.581,46.341-4.495,25.6,7.065,46.247,36.155,46.247" transform="translate(236.914 4.779)" fill="none" stroke="#f05c12" stroke-width="3"/>
      <path id="Path_22" data-name="Path 22" d="M381.425,72.458l3.048-19.6c1.483,0,2.958-.094,4.348-.094,5.639,0,9.153,3.424,8.6,8.879-.74,7.4-6.1,10.816-11.462,10.816ZM343.7,117.586l30.789-.278,3.886-25.244,12.205,25.244H425.07L408.517,89.473a35.927,35.927,0,0,0,18.032-25.984c2.68-17.2-7.4-32.179-32.089-31.807-2.035,0-4.344,0-6.656.094v-.094l-30.793.278Zm-60.006,7.4c29.314,0,47.159-18.494,51.784-44.2l7.674-49.1H311.8l-7.678,46.7c-1.941,10.354-7.4,17.015-15.07,17.015-7.122,0-11.838-4.532-9.8-17.015,2.035-12.577,7.674-46.7,7.674-46.7H255.583l-7.678,49.1c-4.716,30.422,10.358,44.2,35.787,44.2M178.1,78.379c1.941-10.448,7.674-18.956,16.275-18.956,8.785,0,11.556,8.507,9.615,18.956-1.757,10.354-7.674,18.772-16.271,18.772s-11.376-8.418-9.619-18.772m4.715,46.6c29.314,0,48.454-20.8,52.986-46.6,4.622-25.706-7.212-46.7-36.343-46.7-29.31,0-48.544,20.991-53.169,46.7-4.527,25.8,7.306,46.6,36.526,46.6m-99.3-7.674h30.793l4.621-28.387,36.988-57.239H123.922L106.907,65.246l-7.4-33.564H69.923L88.045,89.939Z" transform="translate(-69.921 97.755)" fill="none" stroke="#f05c12" stroke-width="3"/>
      <path id="Path_23" data-name="Path 23" d="M266.268,140.814h46.5c30.883,0,52.352-26.981,56.945-53.043,4.364-27.206-9.758-53.268-39.5-53.268h-46.5Zm43.281-30.655L317.7,60.68h5.284c5.737,0,12.512,5.97,10.559,24.452-2.068,16.876-12.859,25.028-20.206,25.028Zm80.126-16.533H410l22.617-67.275h-38.23Zm-14.236,28.129c0,10.563,9.643,19.058,21.126,19.058,11.826,0,21.126-8.5,21.126-19.058s-9.3-18.944-21.126-18.944c-11.482,0-21.126,8.381-21.126,18.944" transform="translate(536.036 81.326)" fill="none" stroke="#f05c12" stroke-width="3"/>
      <path id="Path_24" data-name="Path 24" d="M219.907,134.66h26.4l27.668-59.242-9.758,59.242H300.96L318.413,28.346H265.141L244.477,73.469,240.8,28.346H186.151L168.47,134.66h36.739l9.643-58.208Z" transform="translate(234.213 87.479)" fill="none" stroke="#f05c12" stroke-width="3"/>
      <path id="Path_25" data-name="Path 25" d="M273.181,28.346c-36.4,0-60.275,26.062-66.016,57.979-5.623,32.032,9.071,57.864,45.349,57.864,36.4,0,60.161-25.833,65.788-57.864,5.741-31.917-8.957-57.979-45.12-57.979m-24.194,71.892-.911-1.263c-5.431-6.35-12.561-9.68-21.207-11.319-.821-.155-2.717-.208-2.444-1.986a2.441,2.441,0,0,1,1.189-1.581,9.539,9.539,0,0,1,2-.429c1.467-.274,2.709-.552,4.143-.891a49.911,49.911,0,0,0,14.477-6.031c1.136-.74,2.051-1.328,3.122-2.1a41.525,41.525,0,0,0,5.5-4.883c5.786-5.929,9.263-12.97,12.136-20.374a8.855,8.855,0,0,1,.785-1.871,2.447,2.447,0,0,1,1.655-.846c1.769,0,1.54,1.933,1.614,2.844.11,1.344.18,2.627.36,3.931a43.622,43.622,0,0,0,1.446,7.228,34.7,34.7,0,0,0,1.087,3.3,35,35,0,0,0,4.838,8.4A30.753,30.753,0,0,0,289.207,80.3a39.585,39.585,0,0,0,6.906,2.5l5.7,1.348c1.05.727.678,2.5-.576,3.106-1.724.834-11.76.838-23.745,9.451a37.86,37.86,0,0,0-4.2,3.616,36.45,36.45,0,0,0-3.788,4.111c-7.282,8.871-9.717,18.474-10.432,19.4-.9,1.16-2.66,1.066-3.089-.1-.147-.4-.425-8.275-1.99-13.055-1.41-4.319-2.329-6.791-5.01-10.436" transform="translate(350.042 87.48)" fill="none" stroke="#f05c12" stroke-width="3" fill-rule="evenodd"/>
      <path id="Path_26" data-name="Path 26" d="M257.207,87.657c-.821-.155-2.717-.208-2.444-1.986a2.441,2.441,0,0,1,1.189-1.581,9.539,9.539,0,0,1,2-.429c1.467-.274,2.709-.552,4.139-.891a49.888,49.888,0,0,0,14.482-6.031c1.136-.74,2.051-1.328,3.122-2.1a41.531,41.531,0,0,0,5.5-4.883c5.786-5.929,9.263-12.97,12.136-20.374a8.853,8.853,0,0,1,.785-1.871,2.438,2.438,0,0,1,1.655-.846c1.769,0,1.541,1.933,1.614,2.844.11,1.344.18,2.627.36,3.927a43.587,43.587,0,0,0,1.447,7.233,33.569,33.569,0,0,0,1.087,3.3,35,35,0,0,0,4.838,8.4A30.753,30.753,0,0,0,319.546,80.3a39.585,39.585,0,0,0,6.905,2.5l5.7,1.348c1.05.727.678,2.5-.576,3.106-1.724.834-11.76.838-23.745,9.451a37.861,37.861,0,0,0-4.2,3.616,36.456,36.456,0,0,0-3.788,4.111c-7.281,8.871-9.717,18.474-10.432,19.4-.9,1.16-2.66,1.066-3.089-.1-.147-.4-.425-8.275-1.99-13.055-1.41-4.319-2.329-6.791-5.01-10.436l-.911-1.263c-5.431-6.35-12.561-9.68-21.207-11.319m-19.671-1.332c-5.627,32.032,9.071,57.864,45.348,57.864,36.4,0,60.161-25.833,65.788-57.864,5.737-31.917-8.957-57.979-45.124-57.979-36.392,0-60.271,26.062-66.012,57.979" transform="translate(443.768 87.48)" fill="none" stroke="#f05c12" stroke-width="3" fill-rule="evenodd"/>
    </g>
  </g>
</svg>
