<svg xmlns="http://www.w3.org/2000/svg" width="122.909" height="122.909" viewBox="0 0 122.909 122.909">
  <g id="Component_7_2"  transform="translate(1.5 1.5)">
    <path id="Path_27"  d="M14.062,0h91.782a14.106,14.106,0,0,1,14.064,14.064v91.782a14.105,14.105,0,0,1-14.064,14.062H14.062A14.1,14.1,0,0,1,0,105.847V14.064A14.1,14.1,0,0,1,14.062,0" fill="none" stroke="#f05c12" stroke-width="3" fill-rule="evenodd"/>
    <path id="Path_28"  d="M15.067,32.919a24.412,24.412,0,0,1,3.551,2.064c1.218.734,2.407,1.48,3.705,2.13,20.936,10.461,38.084,10.329,58.762.074,2.314-1.148,5.3-3.153,7.409-4.268L95.9,45.268c-.675.453-1.343.838-2.066,1.3L80.334,53.5c-21.224,9.517-43.881,6.611-63.994-3.441L7.432,45.044c.279-1.049,3.077-4.951,3.817-6.061.6-.9,3.636-5.387,3.817-6.064" transform="translate(8.286 36.703)" fill="#fff" fill-rule="evenodd"/>
    <path id="Path_29"  d="M10.077,27.138c.243.417,2.066.656,2.591.776,6.36,1.578,10.2,6.1,11.8,12.256.131.5.226,1.074.368,1.559a.718.718,0,0,0,1.419,0c.142-.484.239-1.055.368-1.559,1.593-6.159,5.44-10.678,11.8-12.256.525-.121,2.35-.36,2.591-.776a.561.561,0,0,0,0-.615c-.241-.417-2.066-.656-2.591-.774-6.358-1.58-10.2-6.1-11.8-12.256-.129-.5-.226-1.077-.368-1.561a.718.718,0,0,0-1.419,0c-.142.484-.237,1.057-.368,1.561-1.593,6.157-5.438,10.676-11.8,12.256-.525.118-2.348.357-2.591.774a.561.561,0,0,0,0,.615m46.554,0c.243.417,2.066.656,2.591.776,6.36,1.578,10.207,6.1,11.8,12.256.131.5.226,1.074.368,1.559a.718.718,0,0,0,1.419,0c.144-.484.239-1.055.368-1.559,1.593-6.159,5.44-10.678,11.8-12.256.522-.121,2.348-.36,2.591-.776a.569.569,0,0,0,0-.615c-.243-.417-2.068-.656-2.591-.774-6.36-1.58-10.207-6.1-11.8-12.256-.129-.5-.224-1.077-.368-1.561a.718.718,0,0,0-1.419,0c-.142.484-.237,1.057-.368,1.561-1.59,6.157-5.438,10.676-11.8,12.256-.525.118-2.348.357-2.591.774a.569.569,0,0,0,0,.615" transform="translate(11.133 12.623)" fill="#fff" fill-rule="evenodd"/>
  </g>
</svg>
