<svg id="Component_5_1" data-name="Component 5 – 1" xmlns="http://www.w3.org/2000/svg" width="54.588" height="44.494" viewBox="0 0 54.588 44.494">
  <g id="Group_14"  transform="translate(-9.699 -14.746)">
    <path id="Path_14"  d="M14.41,42.957A15.05,15.05,0,0,1,16.6,44.23c.752.454,1.484.914,2.287,1.315C31.8,52,42.386,51.918,55.144,45.59c1.428-.708,3.271-1.945,4.571-2.633l4.572,7.62c-.416.278-.828.516-1.274.8l-8.332,4.276c-13.1,5.872-27.076,4.079-39.486-2.124l-5.5-3.1a29.61,29.61,0,0,1,2.356-3.74c.369-.555,2.243-3.323,2.355-3.741" fill="#fff" fill-rule="evenodd"/>
    <path id="Path_15"  d="M13.019,24.534c.151.258,1.28.406,1.6.48,3.934.977,6.315,3.773,7.3,7.583.08.312.14.666.227.965a.444.444,0,0,0,.879,0c.088-.3.147-.653.227-.965.986-3.81,3.365-6.606,7.3-7.583.325-.074,1.453-.222,1.6-.48a.351.351,0,0,0,0-.381c-.151-.258-1.279-.406-1.6-.479-3.935-.978-6.314-3.774-7.3-7.584-.08-.311-.139-.666-.227-.965a.444.444,0,0,0-.879,0c-.087.3-.147.654-.227.965-.985,3.81-3.366,6.606-7.3,7.584-.324.073-1.453.221-1.6.479a.351.351,0,0,0,0,.381m28.807,0c.15.258,1.279.406,1.6.48a43.678,43.678,0,0,0,15.934,0c.324-.074,1.453-.222,1.6-.48a.351.351,0,0,0,0-.381c-.15-.258-1.279-.406-1.6-.479a43.634,43.634,0,0,0-15.934,0c-.324.073-1.453.221-1.6.479a.351.351,0,0,0,0,.381" fill="#fff" fill-rule="evenodd"/>
  </g>
</svg>
